<svg id="logo" xmlns="http://www.w3.org/2000/svg" xmlns:xlink="http://www.w3.org/1999/xlink" viewBox="0 0 464.70628 150.39286"><defs><style>.cls-1{fill:none;}.cls-2{clip-path:url(#clip-path);}.cls-3{clip-path:url(#clip-path-2);}.cls-4{fill:#010101;}</style><clipPath id="clip-path" transform="translate(-54.9017 -77.25942)"><path class="cls-1" d="M159.89822,85.49681a4.99015,4.99015,0,0,1-2.61248,6.2737c-13.623,6.27711-21.65055,13.61161-21.65055,25.41681,0,11.0404,9.502,18.1842,20.7315,20.13251,1.94358,0,4.535,2.8142,4.535,7.14386A13.78214,13.78214,0,0,1,146.43286,157.236h-.43193a32.44187,32.44187,0,0,1-31.31324-33.12125c0-21.7566,19.26187-35.63969,39.16489-41.6492a4.95039,4.95039,0,0,1,6.04568,3.0313Zm-54.35246,0a4.99012,4.99012,0,0,1-2.61248,6.2737c-13.623,6.27711-21.65055,13.61161-21.65055,25.41681,0,11.0404,9.502,18.1842,20.73151,20.13251,1.94357,0,4.535,2.8142,4.535,7.14386A14.17335,14.17335,0,0,1,91.64849,157.236h-.21594a32.75146,32.75146,0,0,1-31.52889-33.12125c0-21.7598,19.64166-35.644,39.59964-41.6519a4.95013,4.95013,0,0,1,6.04216,3.0323Z"/></clipPath><clipPath id="clip-path-2" transform="translate(-54.9017 -77.25942)"><rect class="cls-1" x="24.9017" y="-93.74058" width="512" height="512"/></clipPath></defs><title>carrie</title><g class="cls-2"><g class="cls-3"><rect class="cls-4" width="111" height="85"/></g></g><path class="cls-4" d="M215.3716,188.0947a27.20122,27.20122,0,0,0-3.13579-7.2367,25.71413,25.71413,0,0,0-4.94442-5.86919,22.61711,22.61711,0,0,0-6.43244-3.94005,20.08575,20.08575,0,0,0-7.59766-1.44712,19.51144,19.51144,0,0,0-9.88939,2.49293,22.82373,22.82373,0,0,0-7.2765,6.59329,31.43228,31.43228,0,0,0-4.50276,9.28579A36.61188,36.61188,0,0,0,170.025,198.627a34.85585,34.85585,0,0,0,1.64832,10.854,26.878,26.878,0,0,0,4.70342,8.80487,22.355,22.355,0,0,0,7.397,5.90954,21.26956,21.26956,0,0,0,9.64839,2.17014,20.123,20.123,0,0,0,7.83921-1.52782,23.68149,23.68149,0,0,0,6.512-4.01966,24.257,24.257,0,0,0,4.82447-5.74923,21.4014,21.4014,0,0,0,2.69359-6.71325h.96457l-.241,17.68826h-.96511a24.22268,24.22268,0,0,0-2.00983-2.49184q-1.04608-1.12542-1.44712-1.12542a7.12623,7.12623,0,0,0-1.44767.84406,23.38007,23.38007,0,0,1-3.6985,1.84843,34.89856,34.89856,0,0,1-5.86919,1.76883,37.14012,37.14012,0,0,1-7.95972.76446,40.34192,40.34192,0,0,1-13.50774-2.13088,29.2376,29.2376,0,0,1-10.2509-6.02949,26.18693,26.18693,0,0,1-6.47224-9.32723,31.41588,31.41588,0,0,1-2.05073-15.23567,29.22645,29.22645,0,0,1,.72411-3.94005,33.214,33.214,0,0,1,1.44712-4.38171,30.23771,30.23771,0,0,1,2.37188-4.62381,28.87687,28.87687,0,0,1,4.18051-5.22578,26.61335,26.61335,0,0,1,5.86973-4.38171,32.73015,32.73015,0,0,1,7.638-3.01529,37.49744,37.49744,0,0,1,9.56769-1.12542,35.85317,35.85317,0,0,1,8.44227.88441,38.4102,38.4102,0,0,1,6.03,1.92913,22.82917,22.82917,0,0,1,3.6985,1.93022,7.02333,7.02333,0,0,0,1.44767.88441,1.39,1.39,0,0,0,.60251-.36205q.44166-.36151.96511-.88441.52181-.52181,1.08561-1.20612a17.44164,17.44164,0,0,0,1.04472-1.40677h.885v18.01Z" transform="translate(-54.9017 -77.25942)"/><path class="cls-4" d="M256.93846,222.42649a9.96519,9.96519,0,0,1-1.68867,2.61289,6.9318,6.9318,0,0,1-2.452,1.76883,8.19133,8.19133,0,0,1-7.95972-1.00546q-2.13142-1.60634-2.13088-5.62818l-.16085-.0807a19.78318,19.78318,0,0,1-1.72848,2.33263,15.868,15.868,0,0,1-2.57309,2.41114,13.05356,13.05356,0,0,1-3.2961,1.80917,11.17383,11.17383,0,0,1-3.97986.68376,9.90965,9.90965,0,0,1-2.61343-.36205,6.19753,6.19753,0,0,1-2.41169-1.28572,6.96473,6.96473,0,0,1-1.76883-2.37188,8.23471,8.23471,0,0,1-.68376-3.53765,6.58809,6.58809,0,0,1,1.80917-4.34246,20.16683,20.16683,0,0,1,4.46241-3.77866q2.65324-1.68813,4.70342-2.89424,2.05045-1.20557,3.578-2.05018,1.52618-.84406,2.69359-1.44712,1.16386-.6036,1.96948-1.08616V195.893a2.72825,2.72825,0,0,0-.28135-.76336,4.26814,4.26814,0,0,0-.96457-1.24647,6.56316,6.56316,0,0,0-1.88987-1.16577,7.97435,7.97435,0,0,0-3.13525-.52236,7.55483,7.55483,0,0,0-2.53274.44166,9.057,9.057,0,0,0-2.211,1.12651,7.84185,7.84185,0,0,0-1.52782,1.36642,1.996,1.996,0,0,0-.56271,1.16577v3.61835a2.51672,2.51672,0,0,1-1.16577,2.00983,4.1039,4.1039,0,0,1-2.53274.88441,3.01182,3.01182,0,0,1-2.211-.92476,2.92369,2.92369,0,0,1-.92476-2.13088,3.37369,3.37369,0,0,1,.48256-1.76883,6.2421,6.2421,0,0,1,1.20612-1.44712,9.29726,9.29726,0,0,1,1.56762-1.12542c.56271-.3217,1.05781-.61505,1.48747-.88441q2.08971-1.20557,4.26121-2.33153,2.17068-1.12542,4.14071-1.93022a38.07413,38.07413,0,0,1,3.61835-1.28572,10.0404,10.0404,0,0,1,2.693-.4831,7.65737,7.65737,0,0,1,3.94005,1.08616,6.55931,6.55931,0,0,1,2.65324,2.69359,4.87692,4.87692,0,0,1,.40186,1.96948q.07934,1.40677.0807,2.77429,0,2.8937-.04035,5.22578-.04171,2.33263-.04035,4.50276,0,2.17068-.04035,4.46241-.04089,2.2901-.0398,5.02512,0,3.61671,1.24592,4.783A4.05588,4.05588,0,0,0,253.24,222.1844a4.1044,4.1044,0,0,0,2.73339-.76336,3.84448,3.84448,0,0,0,1.20612-1.96948h.48256A8.36659,8.36659,0,0,1,256.93846,222.42649Zm-14.2313-16.96524a32.43881,32.43881,0,0,1-3.6178,2.21158q-2.1715,1.16631-4.22141,2.53219a18.75347,18.75347,0,0,0-3.53765,3.01529,5.42777,5.42777,0,0,0-1.48747,3.73831,5.65875,5.65875,0,0,0,1.44712,3.77866,4.74092,4.74092,0,0,0,3.7792,1.68922,12.89417,12.89417,0,0,0,3.6985-.4831,7.08,7.08,0,0,0,2.97494-1.84952,2.918,2.918,0,0,0,.96457-2.25084Z" transform="translate(-54.9017 -77.25942)"/><path class="cls-4" d="M284.75657,195.69236a3.1589,3.1589,0,0,1-2.41114,1.16577,4.08339,4.08339,0,0,1-2.05018-.44166,6.3069,6.3069,0,0,1-1.32662-1.00546,8.777,8.777,0,0,0-1.20612-1.00546,3.09884,3.09884,0,0,0-1.76883-.44166,3.15291,3.15291,0,0,0-1.88933.68376,8.79031,8.79031,0,0,0-1.729,1.72848,13.57922,13.57922,0,0,0-1.44712,2.37188q-.6445,1.32662-1.12542,2.53219v23.15613a1.94088,1.94088,0,0,0,1.04526,1.12542,6.14809,6.14809,0,0,0,1.80863.56271,16.99388,16.99388,0,0,0,2.09053.20066,12.23892,12.23892,0,0,1,1.88933.20175v.80371h-18.01v-.80371a10.427,10.427,0,0,0,3.17614-.72411,1.91081,1.91081,0,0,0,1.32662-1.84952V196.77743a2.91987,2.91987,0,0,0-.1205-.964,1.85632,1.85632,0,0,0-.68376-.72411q-.72383-.40077-1.68813-1.00546a13.41127,13.41127,0,0,0-1.92968-1.00437v-.482l10.53226-4.10145h.48256l-.16085,11.17675h.16085q.40158-.96511,1.28627-2.81464a24.25326,24.25326,0,0,1,2.25138-3.73831,14.09844,14.09844,0,0,1,3.29665-3.2563,7.46121,7.46121,0,0,1,4.42152-1.36751,5.07828,5.07828,0,0,1,3.41769,1.20612,3.85631,3.85631,0,0,1,1.40677,3.05564A4.22934,4.22934,0,0,1,284.75657,195.69236Z" transform="translate(-54.9017 -77.25942)"/><path class="cls-4" d="M313.46018,195.69236a3.161,3.161,0,0,1-2.41223,1.16577,4.08619,4.08619,0,0,1-2.05018-.44166,6.31722,6.31722,0,0,1-1.32607-1.00546,8.84248,8.84248,0,0,0-1.20612-1.00546,3.1,3.1,0,0,0-1.76883-.44166,3.15441,3.15441,0,0,0-1.88987.68376,8.78822,8.78822,0,0,0-1.72848,1.72848,13.57922,13.57922,0,0,0-1.44712,2.37188q-.6445,1.32662-1.12542,2.53219v23.15613a1.93816,1.93816,0,0,0,1.04472,1.12542,6.15679,6.15679,0,0,0,1.80917.56271,16.98358,16.98358,0,0,0,2.09053.20066,12.23124,12.23124,0,0,1,1.88878.20175v.80371h-18.01v-.80371a10.43074,10.43074,0,0,0,3.17669-.72411,1.9103,1.9103,0,0,0,1.32607-1.84952V196.77743a2.93722,2.93722,0,0,0-.12-.964,1.86055,1.86055,0,0,0-.68376-.72411q-.72465-.40077-1.68813-1.00546a13.388,13.388,0,0,0-1.93022-1.00437v-.482l10.53226-4.10145h.4831l-.1614,11.17675h.1614q.40077-.96511,1.28572-2.81464a24.30148,24.30148,0,0,1,2.25193-3.73831,14.0776,14.0776,0,0,1,3.29665-3.2563,7.46169,7.46169,0,0,1,4.42206-1.36751,5.07346,5.07346,0,0,1,3.4166,1.20612,3.853,3.853,0,0,1,1.40677,3.05564A4.23369,4.23369,0,0,1,313.46018,195.69236Z" transform="translate(-54.9017 -77.25942)"/><path class="cls-4" d="M315.14831,227.33057v-.80371q.96511-.08015,1.92913-.20175a7.69585,7.69585,0,0,0,1.72848-.40131,3.81942,3.81942,0,0,0,1.28682-.76446,1.574,1.574,0,0,0,.52236-1.20612V196.37612a4.70962,4.70962,0,0,0-.12-1.12542,1.61051,1.61051,0,0,0-.68376-.88441,14.24838,14.24838,0,0,0-1.72848-.96511,22.22285,22.22285,0,0,0-2.13088-.88441v-.4831l10.854-3.53765h.4831v35.94031a1.75677,1.75677,0,0,0,.68267,1.16577,3.50405,3.50405,0,0,0,1.24647.52236,9.13962,9.13962,0,0,0,1.56817.20066,11.33937,11.33937,0,0,1,1.64778.20175v.80371ZM326.686,178.88852a4.38282,4.38282,0,0,1-7.43736-3.096,4.06492,4.06492,0,0,1,1.24647-3.05455,4.57522,4.57522,0,0,1,6.19089,0,4.073,4.073,0,0,1,1.24647,3.05455A4.20531,4.20531,0,0,1,326.686,178.88852Z" transform="translate(-54.9017 -77.25942)"/><path class="cls-4" d="M367.489,219.0895a15.13072,15.13072,0,0,1-3.05455,4.06,16.12679,16.12679,0,0,1-4.62381,3.05564,14.5026,14.5026,0,0,1-5.98914,1.20612,17.93117,17.93117,0,0,1-7.47771-1.52782,16.30244,16.30244,0,0,1-5.74923-4.30211,19.789,19.789,0,0,1-3.65761-6.51259,24.14549,24.14549,0,0,1-1.28682-7.91937,20.23534,20.23534,0,0,1,4.62272-12.70348,17.30189,17.30189,0,0,1,5.38718-4.301,15.04805,15.04805,0,0,1,7.035-1.64887,21.1482,21.1482,0,0,1,5.90954.8048,13.71186,13.71186,0,0,1,4.82447,2.45149,12.73819,12.73819,0,0,1,3.337,4.14071,15.05975,15.05975,0,0,1,1.52782,5.86919H342.48441q0,.6445-.0807,1.48747-.08015.8457-.07961,1.72957a21.61718,21.61718,0,0,0,.964,6.47224,17.01283,17.01283,0,0,0,2.81464,5.46678,13.02733,13.02733,0,0,0,4.66307,3.7394,14.72781,14.72781,0,0,0,6.51259,1.36642,12.21139,12.21139,0,0,0,7.035-2.05018,9.67543,9.67543,0,0,0,3.9804-5.02512l.64232.16031A14.816,14.816,0,0,1,367.489,219.0895Zm-9.20509-27.09509a7.29316,7.29316,0,0,0-5.50822-2.13088,6.69828,6.69828,0,0,0-4.06,1.32607,14.94539,14.94539,0,0,0-3.13634,3.096,15.74444,15.74444,0,0,0-2.05018,3.578,14.761,14.761,0,0,0-.88441,2.7732h3.29665q1.44767,0,2.855-.04035,1.40514-.03926,2.93459-.07961,1.52618-.03926,3.37625-.04035c.8048,0,1.554-.02617,2.25193-.0807a6.2144,6.2144,0,0,0,1.84843-.4024,5.87824,5.87824,0,0,0,.84515-1.205,3.93735,3.93735,0,0,0,.28135-1.68922A7.10333,7.10333,0,0,0,358.28388,191.9944Z" transform="translate(-54.9017 -77.25942)"/><path class="cls-4" d="M440.33253,227.33057H388.71488v-.80371a21.20257,21.20257,0,0,0,3.9804-1.04581,7.40761,7.40761,0,0,0,3.0949-2.00983,4.07955,4.07955,0,0,0,.68376-1.40677,13.70831,13.70831,0,0,0,.44166-2.13088q.16031-1.20557.28135-2.53219t.121-2.614q0-1.12378.04035-3.05455.03926-1.93022.07961-4.22141.04089-2.29173.04035-4.70342V179.73258q0-1.44767-.12-2.69359a15.33,15.33,0,0,0-.36205-2.21049,3.68229,3.68229,0,0,0-.72411-1.52782,7.1006,7.1006,0,0,0-3.0142-2.09053,16.31808,16.31808,0,0,0-3.9804-.96511v-.80371h25.648v.80371q-1.04526.16194-2.49184.482a9.96683,9.96683,0,0,0-2.73394,1.04581,6.677,6.677,0,0,0-2.21158,2.05018,6.4223,6.4223,0,0,0-1.00437,3.4973q-.08179,2.81518-.121,5.14617-.04089,2.33263-.07961,4.58237-.04253,2.25247-.04035,4.66307v14.63371q0,2.09217.04035,4.301.03926,2.21321.03926,4.94551.08015,2.57309.20175,4.90407a7.21315,7.21315,0,0,0,.84406,3.457,3.294,3.294,0,0,0,1.28682.8048,12.69592,12.69592,0,0,0,2.33153.68267q1.36588.283,2.97494.4831a25.85054,25.85054,0,0,0,3.21595.20066c.42857,0,1.11124-.012,2.05018-.04035q1.40514-.03926,3.0949-.16031,1.68813-.121,3.458-.36205a21.26257,21.26257,0,0,0,3.13525-.64341,17.94738,17.94738,0,0,0,5.34683-2.33153,16.83594,16.83594,0,0,0,3.6587-3.337,20.30641,20.30641,0,0,0,2.57254-4.10036q1.04363-2.20994,2.00983-4.62272l.80371.241Z" transform="translate(-54.9017 -77.25942)"/><path class="cls-4" d="M479.5684,222.42649a9.95321,9.95321,0,0,1-1.68922,2.61289,6.93468,6.93468,0,0,1-2.45149,1.76883,8.19133,8.19133,0,0,1-7.95972-1.00546q-2.13142-1.60634-2.13088-5.62818l-.1614-.0807a19.722,19.722,0,0,1-1.72848,2.33263,15.84121,15.84121,0,0,1-2.57254,2.41114,13.057,13.057,0,0,1-3.29665,1.80917,11.17079,11.17079,0,0,1-3.97931.68376,9.91362,9.91362,0,0,1-2.614-.36205,6.19162,6.19162,0,0,1-2.41114-1.28572,6.95774,6.95774,0,0,1-1.76883-2.37188,8.22662,8.22662,0,0,1-.68376-3.53765,6.58809,6.58809,0,0,1,1.80917-4.34246,20.16683,20.16683,0,0,1,4.46241-3.77866q2.65324-1.68813,4.70342-2.89424,2.04963-1.20557,3.578-2.05018,1.52618-.84406,2.69359-1.44712,1.163-.6036,1.96948-1.08616V195.893a2.74753,2.74753,0,0,0-.28135-.76336,4.28047,4.28047,0,0,0-.96511-1.24647,6.54806,6.54806,0,0,0-1.88987-1.16577,7.9725,7.9725,0,0,0-3.13525-.52236,7.54936,7.54936,0,0,0-2.53219.44166,9.06092,9.06092,0,0,0-2.21158,1.12651,7.85789,7.85789,0,0,0-1.52782,1.36642,1.99936,1.99936,0,0,0-.56271,1.16577v3.61835a2.51672,2.51672,0,0,1-1.16577,2.00983,4.10239,4.10239,0,0,1-2.53219.88441,3.0139,3.0139,0,0,1-2.21158-.92476,2.9258,2.9258,0,0,1-.92476-2.13088,3.37416,3.37416,0,0,1,.4831-1.76883,6.22855,6.22855,0,0,1,1.20612-1.44712,9.293,9.293,0,0,1,1.56708-1.12542c.56271-.3217,1.05781-.61505,1.48747-.88441q2.09053-1.20557,4.26176-2.33153,2.17068-1.12542,4.14071-1.93022a38.07412,38.07412,0,0,1,3.61835-1.28572,10.03352,10.03352,0,0,1,2.6925-.4831,7.65594,7.65594,0,0,1,3.94005,1.08616,6.55931,6.55931,0,0,1,2.65324,2.69359,4.88448,4.88448,0,0,1,.4024,1.96948q.07852,1.40677.0807,2.77429,0,2.8937-.04035,5.22578-.04253,2.33263-.04035,4.50276,0,2.17068-.04035,4.46241-.04089,2.2901-.04035,5.02512,0,3.61671,1.24647,4.783a4.05368,4.05368,0,0,0,2.85389,1.16577,4.106,4.106,0,0,0,2.73394-.76336,3.84808,3.84808,0,0,0,1.20612-1.96948h.482A8.3542,8.3542,0,0,1,479.5684,222.42649Zm-14.2313-16.96524a32.50194,32.50194,0,0,1-3.61835,2.21158q-2.17068,1.16631-4.22141,2.53219a18.75347,18.75347,0,0,0-3.53765,3.01529,5.42777,5.42777,0,0,0-1.48747,3.73831,5.66146,5.66146,0,0,0,1.44712,3.77866,4.742,4.742,0,0,0,3.77975,1.68922,12.89291,12.89291,0,0,0,3.698-.4831,7.07334,7.07334,0,0,0,2.97494-1.84952,2.91661,2.91661,0,0,0,.96511-2.25084Z" transform="translate(-54.9017 -77.25942)"/><path class="cls-4" d="M508.19132,227.41127h-.56271v-8.12111l-.0807-.0807a29.04549,29.04549,0,0,1-2.17123,2.89533,18.90469,18.90469,0,0,1-2.89424,2.7732,13.27608,13.27608,0,0,1-3.578,1.97057,12.16118,12.16118,0,0,1-4.22141.723q-5.14617,0-7.59766-3.05455-2.45367-3.05564-2.45258-8.92483V195.0893a9.05521,9.05521,0,0,0-.07961-1.16577c-.05453-.4024-.09488-.77645-.121-1.12542a1.66026,1.66026,0,0,0-.20066-.76446,2.0998,2.0998,0,0,0-.92476-1.04472,5.25536,5.25536,0,0,0-1.32716-.482,9.34561,9.34561,0,0,0-1.52673-.20175q-.8048-.03926-1.52782-.12v-.88441h12.38178V212.698q0,5.30648,1.61506,7.83867,1.61779,2.53219,6.06112,2.53219a8.85205,8.85205,0,0,0,2.94877-.44166,9.86679,9.86679,0,0,0,2.26174-1.12542,11.42586,11.42586,0,0,0,1.85825-1.56817,20.539,20.539,0,0,0,1.57689-1.84952V195.17a16.72365,16.72365,0,0,0-.1614-2.05018,4.01473,4.01473,0,0,0-.64341-1.88987,11.28793,11.28793,0,0,0-2.61289-.64341q-1.64887-.24046-3.4166-.40131v-.88441h13.5072V221.059a2.89687,2.89687,0,0,0,.121.96511,1.825,1.825,0,0,0,.68267.72411q.72465.4024,2.13088,1.04472,1.40677.6445,2.37188,1.04472v.4831Z" transform="translate(-54.9017 -77.25942)"/></svg>